<svg width="1600" height="520" viewBox="0 0 1600 520" fill="none" xmlns="http://www.w3.org/2000/svg" role="img" aria-labelledby="title desc">
<title id="title">Hogwarts Interactive Experience</title>
<desc id="desc">A cinematic parchment and night-sky header for the Harry Potter inspired interactive website.</desc>
<defs>
  <linearGradient id="bg" x1="0" y1="0" x2="1600" y2="520" gradientUnits="userSpaceOnUse">
    <stop stop-color="#070A12"/>
    <stop offset=".48" stop-color="#17101A"/>
    <stop offset="1" stop-color="#080A10"/>
  </linearGradient>
  <linearGradient id="gold" x1="0" y1="0" x2="1" y2="1">
    <stop stop-color="#FFF1A8"/>
    <stop offset=".45" stop-color="#D7B45B"/>
    <stop offset="1" stop-color="#8A642B"/>
  </linearGradient>
  <radialGradient id="moon" cx="0" cy="0" r="1" gradientTransform="translate(1305 145) rotate(90) scale(110)">
    <stop stop-color="#FFF4C7" stop-opacity=".95"/>
    <stop offset="1" stop-color="#C79A4B" stop-opacity="0"/>
  </radialGradient>
  <pattern id="grain" width="10" height="10" patternUnits="userSpaceOnUse">
    <circle cx="1" cy="2" r=".8" fill="#F4E7C5" opacity=".05"/>
    <circle cx="8" cy="7" r=".6" fill="#F4E7C5" opacity=".04"/>
  </pattern>
  <filter id="glow" x="-50%" y="-50%" width="200%" height="200%">
    <feGaussianBlur stdDeviation="5" result="b"/>
    <feMerge><feMergeNode in="b"/><feMergeNode in="SourceGraphic"/></feMerge>
  </filter>
</defs>
<rect width="1600" height="520" rx="24" fill="url(#bg)"/>
<rect width="1600" height="520" rx="24" fill="url(#grain)"/>
<circle cx="1305" cy="145" r="110" fill="url(#moon)"/>
<g fill="#E9D9A7" opacity=".65">
  <circle cx="130" cy="70" r="2"/><circle cx="310" cy="105" r="1.5"/><circle cx="725" cy="70" r="1.6"/>
  <circle cx="1130" cy="80" r="1.3"/><circle cx="1450" cy="60" r="1.8"/><circle cx="1040" cy="150" r="1.2"/>
  <circle cx="560" cy="150" r="1.1"/><circle cx="880" cy="120" r="1.4"/>
</g>
<g opacity=".28" stroke="#C7A75B">
  <path d="M80 105H390"/><path d="M80 416H1520"/><path d="M1210 105H1520"/>
</g>
<rect x="80" y="62" width="310" height="42" rx="9" fill="#11131C" stroke="#8A6B35"/>
<text x="98" y="90" fill="#F6E8B1" font-size="21" font-family="Georgia, 'Times New Roman', serif" font-weight="700">HOGWARTS // INTERACTIVE ARCHIVE</text>
<text x="80" y="188" fill="url(#gold)" font-size="72" font-family="Georgia, 'Times New Roman', serif" font-weight="700">HOGWARTS AWAITS</text>
<text x="82" y="234" fill="#D6C8A6" font-size="27" font-family="'Segoe UI', Arial, sans-serif">A cinematic, scroll-driven journey through the castle, the Sorting Hat, and the four Houses.</text>
<g transform="translate(80 286)">
  <rect width="760" height="102" rx="15" fill="#0B0E16" stroke="#6B542B"/>
  <text x="22" y="29" fill="#D8BB73" font-size="18" font-family="Consolas, monospace">&gt; SPELL_ENGINE :: GSAP + SCROLLTRIGGER</text>
  <text x="22" y="56" fill="#E7DFC9" font-size="18" font-family="Consolas, monospace">&gt; HOUSE_SYSTEM :: PERSISTENT / INTERACTIVE</text>
  <text x="22" y="83" fill="#E7DFC9" font-size="18" font-family="Consolas, monospace">&gt; CASTLE_STATE :: AWAITING YOUR STORY</text>
</g>
<g transform="translate(890 286)">
  <rect width="190" height="102" rx="15" fill="#130D10" stroke="#8C2D37"/>
  <text x="18" y="28" fill="#D9B55A" font-size="16" font-family="'Segoe UI', Arial" font-weight="700">GRYFFINDOR</text>
  <text x="18" y="64" fill="#F1D17C" font-size="27" font-family="Georgia, serif" font-weight="700">COURAGE</text>
</g>
<g transform="translate(1098 286)">
  <rect width="190" height="102" rx="15" fill="#0D1411" stroke="#336B52"/>
  <text x="18" y="28" fill="#C9D5CF" font-size="16" font-family="'Segoe UI', Arial" font-weight="700">SLYTHERIN</text>
  <text x="18" y="64" fill="#8BC7A8" font-size="27" font-family="Georgia, serif" font-weight="700">AMBITION</text>
</g>
<g transform="translate(1306 286)">
  <rect width="214" height="102" rx="15" fill="#0E1218" stroke="#445C82"/>
  <text x="18" y="28" fill="#C8B38D" font-size="16" font-family="'Segoe UI', Arial" font-weight="700">RAVENCLAW · HUFFLEPUFF</text>
  <text x="18" y="64" fill="#AFC4E6" font-size="24" font-family="Georgia, serif" font-weight="700">WIT · LOYALTY</text>
</g>
<g transform="translate(1235 120)" stroke="url(#gold)" stroke-width="3" fill="none" filter="url(#glow)">
  <path d="M70 0L85 34L123 38L94 63L103 100L70 80L37 100L46 63L17 38L55 34Z"/>
  <circle cx="70" cy="50" r="10"/>
</g>
<g transform="translate(1180 410)" fill="#151923">
  <path d="M0 70L90 10L180 70V90H0Z"/><rect x="52" y="35" width="15" height="55"/><rect x="113" y="30" width="16" height="60"/>
  <path d="M27 70V38L39 26L51 38V70Z"/><path d="M137 70V43L150 31L163 43V70Z"/>
</g>
<text x="80" y="470" fill="#77684C" font-size="15" font-family="Consolas, monospace">HOGWARTS EXPERIENCE // REACT + VITE + GSAP // FAN-MADE INTERACTIVE PROJECT</text>
</svg>